P1
3 5
010
010
010
010
010
