P1
3 5
000
101
101
101
000
